<mxfile host="Electron" modified="2025-06-23T15:59:18.241Z" agent="Mozilla/5.0 (Macintosh; Intel Mac OS X 10_15_7) AppleWebKit/537.36 (KHTML, like Gecko) draw.io/21.1.2 Chrome/106.0.5249.199 Electron/21.4.3 Safari/537.36" etag="bvSQ1xTADYeEUwRK1wBK" version="21.1.2" type="device">
  <diagram name="Page-1" id="lIGqZpMaBN4NJN3-Ng-W">
    <mxGraphModel dx="1307" dy="863" grid="1" gridSize="10" guides="1" tooltips="1" connect="1" arrows="1" fold="1" page="1" pageScale="1" pageWidth="1100" pageHeight="850" math="0" shadow="0">
      <root>
        <mxCell id="0" />
        <mxCell id="1" parent="0" />
        <mxCell id="riA5b1nAxZIxLpvbB7OY-38" value="" style="rounded=0;whiteSpace=wrap;html=1;strokeColor=none;fillColor=#000000;" vertex="1" parent="1">
          <mxGeometry x="280.1" y="440" width="639.9" height="400" as="geometry" />
        </mxCell>
        <mxCell id="riA5b1nAxZIxLpvbB7OY-37" value="" style="rounded=0;whiteSpace=wrap;html=1;strokeColor=none;" vertex="1" parent="1">
          <mxGeometry x="280.1" y="10" width="639.9" height="400" as="geometry" />
        </mxCell>
        <mxCell id="riA5b1nAxZIxLpvbB7OY-20" value="" style="rounded=1;whiteSpace=wrap;html=1;arcSize=50;rotation=-11;gradientColor=#FF3333;gradientDirection=east;strokeColor=none;opacity=30;" vertex="1" parent="1">
          <mxGeometry x="320" y="105.13999999999999" width="530" height="70" as="geometry" />
        </mxCell>
        <mxCell id="riA5b1nAxZIxLpvbB7OY-1" value="" style="ellipse;whiteSpace=wrap;html=1;aspect=fixed;strokeWidth=8;strokeColor=#FFFFFF;fillColor=#FF3333;" vertex="1" parent="1">
          <mxGeometry x="325.05" y="209" width="20" height="20" as="geometry" />
        </mxCell>
        <mxCell id="riA5b1nAxZIxLpvbB7OY-3" value="" style="ellipse;whiteSpace=wrap;html=1;aspect=fixed;strokeWidth=8;strokeColor=#FFFFFF;fillColor=#FF3333;" vertex="1" parent="1">
          <mxGeometry x="445.05" y="129" width="20" height="20" as="geometry" />
        </mxCell>
        <mxCell id="riA5b1nAxZIxLpvbB7OY-4" value="" style="curved=1;endArrow=open;html=1;rounded=0;exitX=0.637;exitY=0.079;exitDx=0;exitDy=0;entryX=0;entryY=0.5;entryDx=0;entryDy=0;strokeWidth=3;endFill=0;exitPerimeter=0;strokeColor=#FF3333;endSize=8;" edge="1" parent="1" source="riA5b1nAxZIxLpvbB7OY-1" target="riA5b1nAxZIxLpvbB7OY-3">
          <mxGeometry width="50" height="50" relative="1" as="geometry">
            <mxPoint x="435.05" y="349" as="sourcePoint" />
            <mxPoint x="485.05" y="299" as="targetPoint" />
            <Array as="points">
              <mxPoint x="355.05" y="169" />
              <mxPoint x="405.05" y="139" />
            </Array>
          </mxGeometry>
        </mxCell>
        <mxCell id="riA5b1nAxZIxLpvbB7OY-6" value="" style="ellipse;whiteSpace=wrap;html=1;aspect=fixed;strokeWidth=8;strokeColor=#FFFFFF;fillColor=#0000FF;" vertex="1" parent="1">
          <mxGeometry x="445.05" y="289" width="20" height="20" as="geometry" />
        </mxCell>
        <mxCell id="riA5b1nAxZIxLpvbB7OY-7" value="" style="curved=1;endArrow=open;html=1;rounded=0;entryX=0.5;entryY=1;entryDx=0;entryDy=0;strokeWidth=2;endFill=0;exitX=0;exitY=0.5;exitDx=0;exitDy=0;endSize=8;strokeColor=#0000FF;" edge="1" parent="1" source="riA5b1nAxZIxLpvbB7OY-6">
          <mxGeometry width="50" height="50" relative="1" as="geometry">
            <mxPoint x="415.05" y="299" as="sourcePoint" />
            <mxPoint x="335.05" y="229" as="targetPoint" />
            <Array as="points">
              <mxPoint x="405.05" y="299" />
              <mxPoint x="355.05" y="269" />
            </Array>
          </mxGeometry>
        </mxCell>
        <mxCell id="riA5b1nAxZIxLpvbB7OY-8" value="" style="curved=1;endArrow=open;html=1;rounded=0;exitX=1;exitY=1;exitDx=0;exitDy=0;entryX=1;entryY=0;entryDx=0;entryDy=0;strokeWidth=2;endFill=0;endSize=8;strokeColor=#0000FF;" edge="1" parent="1" source="riA5b1nAxZIxLpvbB7OY-3" target="riA5b1nAxZIxLpvbB7OY-6">
          <mxGeometry width="50" height="50" relative="1" as="geometry">
            <mxPoint x="545.05" y="241" as="sourcePoint" />
            <mxPoint x="652.05" y="169" as="targetPoint" />
            <Array as="points">
              <mxPoint x="495.05" y="179" />
              <mxPoint x="495.05" y="259" />
            </Array>
          </mxGeometry>
        </mxCell>
        <mxCell id="riA5b1nAxZIxLpvbB7OY-10" value="" style="ellipse;whiteSpace=wrap;html=1;aspect=fixed;strokeWidth=8;strokeColor=#FFFFFF;fillColor=#FF3333;" vertex="1" parent="1">
          <mxGeometry x="805.05" y="129" width="20" height="20" as="geometry" />
        </mxCell>
        <mxCell id="riA5b1nAxZIxLpvbB7OY-12" value="" style="ellipse;whiteSpace=wrap;html=1;aspect=fixed;strokeWidth=8;strokeColor=#FFFFFF;fillColor=#0000FF;" vertex="1" parent="1">
          <mxGeometry x="805.05" y="289" width="20" height="20" as="geometry" />
        </mxCell>
        <mxCell id="riA5b1nAxZIxLpvbB7OY-14" value="" style="curved=1;endArrow=open;html=1;rounded=0;exitX=1;exitY=1;exitDx=0;exitDy=0;entryX=1;entryY=0;entryDx=0;entryDy=0;strokeWidth=2;endFill=0;endSize=8;strokeColor=#0000FF;" edge="1" parent="1" source="riA5b1nAxZIxLpvbB7OY-10" target="riA5b1nAxZIxLpvbB7OY-12">
          <mxGeometry width="50" height="50" relative="1" as="geometry">
            <mxPoint x="905.05" y="241" as="sourcePoint" />
            <mxPoint x="1012.05" y="169" as="targetPoint" />
            <Array as="points">
              <mxPoint x="855.05" y="179" />
              <mxPoint x="855.05" y="259" />
            </Array>
          </mxGeometry>
        </mxCell>
        <mxCell id="riA5b1nAxZIxLpvbB7OY-15" value="" style="curved=1;endArrow=open;html=1;rounded=0;exitX=1;exitY=1;exitDx=0;exitDy=0;entryX=1;entryY=0;entryDx=0;entryDy=0;strokeWidth=2;endFill=0;endSize=8;strokeColor=#0000FF;" edge="1" parent="1">
          <mxGeometry width="50" height="50" relative="1" as="geometry">
            <mxPoint x="807.05" y="290" as="sourcePoint" />
            <mxPoint x="807.05" y="144" as="targetPoint" />
            <Array as="points">
              <mxPoint x="774.05" y="257" />
              <mxPoint x="774.05" y="177" />
            </Array>
          </mxGeometry>
        </mxCell>
        <mxCell id="riA5b1nAxZIxLpvbB7OY-16" value="" style="curved=1;endArrow=open;html=1;rounded=0;exitX=1;exitY=1;exitDx=0;exitDy=0;entryX=1;entryY=0;entryDx=0;entryDy=0;strokeWidth=3;endFill=0;strokeColor=#FF3333;endSize=8;" edge="1" parent="1">
          <mxGeometry width="50" height="50" relative="1" as="geometry">
            <mxPoint x="806.05" y="130" as="sourcePoint" />
            <mxPoint x="823.1210678118655" y="132.92893218813458" as="targetPoint" />
            <Array as="points">
              <mxPoint x="776.05" y="90" />
              <mxPoint x="816.05" y="50" />
              <mxPoint x="856.05" y="90" />
            </Array>
          </mxGeometry>
        </mxCell>
        <mxCell id="riA5b1nAxZIxLpvbB7OY-17" value="" style="rounded=1;whiteSpace=wrap;html=1;rotation=-9;gradientColor=#FF3333;gradientDirection=east;strokeColor=none;opacity=30;fillColor=#FFCCCC;" vertex="1" parent="1">
          <mxGeometry x="335.11" y="171.61" width="484.91" height="10" as="geometry" />
        </mxCell>
        <mxCell id="riA5b1nAxZIxLpvbB7OY-18" value="" style="rounded=1;whiteSpace=wrap;html=1;rotation=0;gradientColor=#FF3333;gradientDirection=east;strokeColor=none;opacity=30;fillColor=#FFCCCC;" vertex="1" parent="1">
          <mxGeometry x="455.05" y="134" width="364.91" height="10" as="geometry" />
        </mxCell>
        <mxCell id="riA5b1nAxZIxLpvbB7OY-21" value="" style="endArrow=open;html=1;rounded=0;endFill=0;strokeWidth=3;endSize=14;strokeColor=#000000;" edge="1" parent="1">
          <mxGeometry width="50" height="50" relative="1" as="geometry">
            <mxPoint x="525.05" y="219" as="sourcePoint" />
            <mxPoint x="745.05" y="219" as="targetPoint" />
          </mxGeometry>
        </mxCell>
        <mxCell id="riA5b1nAxZIxLpvbB7OY-22" value="" style="rounded=1;whiteSpace=wrap;html=1;arcSize=50;rotation=-11;gradientColor=#FF3333;gradientDirection=east;strokeColor=none;opacity=30;fillColor=#000000;" vertex="1" parent="1">
          <mxGeometry x="325.05" y="505.14" width="530" height="70" as="geometry" />
        </mxCell>
        <mxCell id="riA5b1nAxZIxLpvbB7OY-23" value="" style="ellipse;whiteSpace=wrap;html=1;aspect=fixed;strokeWidth=8;strokeColor=#000000;fillColor=#FF3333;" vertex="1" parent="1">
          <mxGeometry x="330.1" y="609" width="20" height="20" as="geometry" />
        </mxCell>
        <mxCell id="riA5b1nAxZIxLpvbB7OY-24" value="" style="ellipse;whiteSpace=wrap;html=1;aspect=fixed;strokeWidth=8;strokeColor=#000000;fillColor=#FF3333;" vertex="1" parent="1">
          <mxGeometry x="450.1" y="529" width="20" height="20" as="geometry" />
        </mxCell>
        <mxCell id="riA5b1nAxZIxLpvbB7OY-25" value="" style="curved=1;endArrow=open;html=1;rounded=0;exitX=0.637;exitY=0.079;exitDx=0;exitDy=0;entryX=0;entryY=0.5;entryDx=0;entryDy=0;strokeWidth=3;endFill=0;exitPerimeter=0;strokeColor=#FF3333;endSize=8;" edge="1" parent="1" source="riA5b1nAxZIxLpvbB7OY-23" target="riA5b1nAxZIxLpvbB7OY-24">
          <mxGeometry width="50" height="50" relative="1" as="geometry">
            <mxPoint x="440.1" y="749" as="sourcePoint" />
            <mxPoint x="490.1" y="699" as="targetPoint" />
            <Array as="points">
              <mxPoint x="360.1" y="569" />
              <mxPoint x="410.1" y="539" />
            </Array>
          </mxGeometry>
        </mxCell>
        <mxCell id="riA5b1nAxZIxLpvbB7OY-26" value="" style="ellipse;whiteSpace=wrap;html=1;aspect=fixed;strokeWidth=8;strokeColor=#000000;fillColor=#8F8FFF;" vertex="1" parent="1">
          <mxGeometry x="450.1" y="689" width="20" height="20" as="geometry" />
        </mxCell>
        <mxCell id="riA5b1nAxZIxLpvbB7OY-27" value="" style="curved=1;endArrow=open;html=1;rounded=0;entryX=0.5;entryY=1;entryDx=0;entryDy=0;strokeWidth=2;endFill=0;exitX=0;exitY=0.5;exitDx=0;exitDy=0;endSize=8;strokeColor=#8F8FFF;" edge="1" parent="1" source="riA5b1nAxZIxLpvbB7OY-26">
          <mxGeometry width="50" height="50" relative="1" as="geometry">
            <mxPoint x="420.1" y="699" as="sourcePoint" />
            <mxPoint x="340.1" y="629" as="targetPoint" />
            <Array as="points">
              <mxPoint x="410.1" y="699" />
              <mxPoint x="360.1" y="669" />
            </Array>
          </mxGeometry>
        </mxCell>
        <mxCell id="riA5b1nAxZIxLpvbB7OY-28" value="" style="curved=1;endArrow=open;html=1;rounded=0;exitX=1;exitY=1;exitDx=0;exitDy=0;entryX=1;entryY=0;entryDx=0;entryDy=0;strokeWidth=2;endFill=0;endSize=8;strokeColor=#8F8FFF;" edge="1" parent="1" source="riA5b1nAxZIxLpvbB7OY-24" target="riA5b1nAxZIxLpvbB7OY-26">
          <mxGeometry width="50" height="50" relative="1" as="geometry">
            <mxPoint x="550.0999999999999" y="641" as="sourcePoint" />
            <mxPoint x="657.0999999999999" y="569" as="targetPoint" />
            <Array as="points">
              <mxPoint x="500.1" y="579" />
              <mxPoint x="500.1" y="659" />
            </Array>
          </mxGeometry>
        </mxCell>
        <mxCell id="riA5b1nAxZIxLpvbB7OY-29" value="" style="ellipse;whiteSpace=wrap;html=1;aspect=fixed;strokeWidth=8;strokeColor=#000000;fillColor=#FF3333;" vertex="1" parent="1">
          <mxGeometry x="810.0999999999999" y="529" width="20" height="20" as="geometry" />
        </mxCell>
        <mxCell id="riA5b1nAxZIxLpvbB7OY-30" value="" style="ellipse;whiteSpace=wrap;html=1;aspect=fixed;strokeWidth=8;strokeColor=#000000;fillColor=#8F8FFF;" vertex="1" parent="1">
          <mxGeometry x="810.0999999999999" y="689" width="20" height="20" as="geometry" />
        </mxCell>
        <mxCell id="riA5b1nAxZIxLpvbB7OY-31" value="" style="curved=1;endArrow=open;html=1;rounded=0;exitX=1;exitY=1;exitDx=0;exitDy=0;entryX=1;entryY=0;entryDx=0;entryDy=0;strokeWidth=2;endFill=0;endSize=8;strokeColor=#8F8FFF;" edge="1" parent="1" source="riA5b1nAxZIxLpvbB7OY-29" target="riA5b1nAxZIxLpvbB7OY-30">
          <mxGeometry width="50" height="50" relative="1" as="geometry">
            <mxPoint x="910.0999999999999" y="641" as="sourcePoint" />
            <mxPoint x="1017.0999999999999" y="569" as="targetPoint" />
            <Array as="points">
              <mxPoint x="860.0999999999999" y="579" />
              <mxPoint x="860.0999999999999" y="659" />
            </Array>
          </mxGeometry>
        </mxCell>
        <mxCell id="riA5b1nAxZIxLpvbB7OY-32" value="" style="curved=1;endArrow=open;html=1;rounded=0;exitX=1;exitY=1;exitDx=0;exitDy=0;entryX=1;entryY=0;entryDx=0;entryDy=0;strokeWidth=2;endFill=0;endSize=8;strokeColor=#8F8FFF;" edge="1" parent="1">
          <mxGeometry width="50" height="50" relative="1" as="geometry">
            <mxPoint x="812.0999999999999" y="690" as="sourcePoint" />
            <mxPoint x="812.0999999999999" y="544" as="targetPoint" />
            <Array as="points">
              <mxPoint x="779.0999999999999" y="657" />
              <mxPoint x="779.0999999999999" y="577" />
            </Array>
          </mxGeometry>
        </mxCell>
        <mxCell id="riA5b1nAxZIxLpvbB7OY-33" value="" style="curved=1;endArrow=open;html=1;rounded=0;exitX=1;exitY=1;exitDx=0;exitDy=0;entryX=1;entryY=0;entryDx=0;entryDy=0;strokeWidth=3;endFill=0;strokeColor=#FF3333;endSize=8;" edge="1" parent="1">
          <mxGeometry width="50" height="50" relative="1" as="geometry">
            <mxPoint x="811.0999999999999" y="530" as="sourcePoint" />
            <mxPoint x="828.1710678118654" y="532.9289321881346" as="targetPoint" />
            <Array as="points">
              <mxPoint x="781.0999999999999" y="490" />
              <mxPoint x="821.0999999999999" y="450" />
              <mxPoint x="861.0999999999999" y="490" />
            </Array>
          </mxGeometry>
        </mxCell>
        <mxCell id="riA5b1nAxZIxLpvbB7OY-34" value="" style="rounded=1;whiteSpace=wrap;html=1;rotation=-9;gradientColor=#FF3333;gradientDirection=east;strokeColor=none;opacity=30;fillColor=#9C1414;" vertex="1" parent="1">
          <mxGeometry x="340.16" y="571.61" width="484.91" height="10" as="geometry" />
        </mxCell>
        <mxCell id="riA5b1nAxZIxLpvbB7OY-35" value="" style="rounded=1;whiteSpace=wrap;html=1;rotation=0;gradientColor=#FF3333;gradientDirection=east;strokeColor=none;opacity=30;fillColor=#9C1414;" vertex="1" parent="1">
          <mxGeometry x="460.1" y="534" width="364.91" height="10" as="geometry" />
        </mxCell>
        <mxCell id="riA5b1nAxZIxLpvbB7OY-36" value="" style="endArrow=open;html=1;rounded=0;endFill=0;strokeWidth=3;endSize=14;strokeColor=#CCCCCC;" edge="1" parent="1">
          <mxGeometry width="50" height="50" relative="1" as="geometry">
            <mxPoint x="530.0999999999999" y="619" as="sourcePoint" />
            <mxPoint x="750.0999999999999" y="619" as="targetPoint" />
          </mxGeometry>
        </mxCell>
      </root>
    </mxGraphModel>
  </diagram>
</mxfile>
